<?xml version="1.0" encoding="UTF-8"?>
<svg width="152" height="152" viewBox="0 0 152 152" fill="none" xmlns="http://www.w3.org/2000/svg">
  <rect width="152" height="152" rx="33.44" fill="#f97316"/>
  <g transform="translate(38, 38)">
    <svg width="76" height="76" viewBox="0 0 24 24" fill="white">
      <path d="M12 2C13.1 2 14 2.9 14 4V5H19C20.1 5 21 5.9 21 7V19C21 20.1 20.1 21 19 21H5C3.9 21 3 20.1 3 19V7C3 5.9 3.9 5 5 5H10V4C10 2.9 10.9 2 12 2ZM12 4V6H10V4H12ZM19 7H5V19H19V7ZM7 9H17V11H7V9ZM7 13H17V15H7V13ZM7 17H14V19H7V17Z"/>
    </svg>
  </g>
</svg>